<svg xmlns="http://www.w3.org/2000/svg" viewBox="0 0 512 512">
  <rect width="512" height="512" fill="#E2401C"/>
  <rect x="128" y="128" width="256" height="256" rx="64" fill="#FFFFFF" />
  
  <g transform="translate(160, 160) scale(8)">
    <svg width="24" height="24" viewBox="0 0 24 24" fill="none" stroke="#E2401C" stroke-width="2" stroke-linecap="round" stroke-linejoin="round">
      <path d="m2 7 4.41-4.41A2 2 0 0 1 7.83 2h8.34a2 2 0 0 1 1.42.59L22 7"/>
      <path d="M4 12v8a2 2 0 0 0 2 2h12a2 2 0 0 0 2-2v-8"/>
      <path d="M15 22v-4a2 2 0 0 0-2-2h-2a2 2 0 0 0-2 2v4"/>
      <path d="M2 7h20"/>
      <path d="M22 7v3a2 2 0 0 1-2 2v0a2.7 2.7 0 0 1-1.59-.63.7.7 0 0 0-.82 0A2.7 2.7 0 0 1 16 12a2.7 2.7 0 0 1-1.59-.63.7.7 0 0 0-.82 0A2.7 2.7 0 0 1 12 12a2.7 2.7 0 0 1-1.59-.63.7.7 0 0 0-.82 0A2.7 2.7 0 0 1 8 12a2.7 2.7 0 0 1-1.59-.63.7.7 0 0 0-.82 0A2.7 2.7 0 0 1 4 12v0a2 2 0 0 1-2-2V7"/>
    </svg>
  </g>

  <!-- Flame pop-up on top right of the box -->
  <circle cx="384" cy="128" r="48" fill="#E7AA2B" stroke="#E2401C" stroke-width="12" />
  <g transform="translate(348, 92) scale(3)">
    <svg width="24" height="24" viewBox="0 0 24 24" fill="#FFFFFF" stroke="#FFFFFF" stroke-width="2" stroke-linecap="round" stroke-linejoin="round">
      <path d="M8.5 14.5A2.5 2.5 0 0 0 11 12c0-1.38-.5-2-1-3-1.072-2.143-.224-4.054 2-6 .5 2.5 2 4.9 4 6.5 2 1.6 3 3.5 3 5.5a7 7 0 1 1-14 0c0-1.153.433-2.294 1-3a2.5 2.5 0 0 0 2.5 2.5z"/>
    </svg>
  </g>
</svg>
